<svg version="1.1" id="Layer_1" xmlns="http://www.w3.org/2000/svg"
  xmlns:xlink="http://www.w3.org/1999/xlink" x="0px" y="0px"
  width="100%" viewBox="0 0 512 236" enable-background="new 0 0 512 236" xml:space="preserve">
<path fill="#23200A" opacity="1.000000" stroke="none"
	d="
M513.000000,19.000000
	C513.000000,20.066669 513.000000,21.133339 512.695068,22.780956
	C512.296509,24.523016 512.202820,25.684126 512.075684,27.316956
	C512.062927,31.575592 512.083557,35.362511 512.086426,39.525871
	C512.379089,41.268215 512.689514,42.634106 513.000000,44.000000
	C513.000000,46.041668 513.000000,48.083332 512.617676,50.721848
	C512.167114,73.723198 512.092712,96.127701 512.071289,118.532265
	C512.070862,119.021217 512.676880,119.510750 513.000000,120.000000
	C513.000000,122.370560 513.000000,124.741112 512.615601,127.729813
	C512.487488,131.565308 512.743774,134.782654 513.000000,138.000000
	C513.000000,162.020889 513.000000,186.041794 512.624268,210.701324
	C511.511505,217.936066 510.598511,224.519348 510.116699,231.134048
	C509.898407,234.131104 508.770599,235.004883 505.889893,235.200653
	C501.572449,235.494034 497.294647,236.371140 493.000000,237.000000
	C488.310760,237.000000 483.621490,237.000000 478.278290,236.603973
	C445.763641,236.198471 413.902954,236.188980 381.576904,236.099487
	C367.764160,236.065613 354.416809,236.111740 340.780609,235.844940
	C334.362579,235.354477 328.233093,235.044357 322.104401,235.060043
	C319.386414,235.067017 316.670105,235.732559 313.500854,236.061752
	C309.365753,236.349579 305.682892,236.674789 302.000000,237.000000
	C270.979095,237.000000 239.958206,237.000000 208.227203,236.687210
	C205.645340,236.303436 203.773605,236.232437 201.468735,236.118073
	C198.357071,236.383133 195.678543,236.691559 193.000000,237.000000
	C190.629440,237.000000 188.258896,237.000000 185.266037,236.603348
	C154.347000,235.592987 124.044342,235.183456 93.755188,234.307190
	C64.463028,233.459763 35.182747,232.178070 5.905706,230.894196
	C4.231384,230.820770 2.633472,229.004913 1.000000,228.000000
	C1.000000,222.645065 1.000000,217.290146 1.363159,211.315491
	C2.407928,203.937698 3.667411,197.177490 3.642555,190.422012
	C3.599879,178.822754 2.091195,167.210449 2.370021,155.631836
	C3.270296,118.246658 4.713292,80.874619 5.927127,43.496861
	C6.272298,32.867981 6.315536,22.222960 6.947780,11.612185
	C7.310336,5.527527 9.518747,3.699904 15.570768,2.547404
	C18.055304,2.074268 20.524063,1.518293 23.000000,1.000000
	C72.687561,1.000000 122.375122,1.000000 172.700775,1.371914
	C182.183640,3.838585 191.361481,5.048256 199.799683,8.223521
	C214.601059,13.793232 224.931107,24.239954 228.451920,40.188663
	C229.481979,44.854725 229.929214,49.739128 229.943649,54.525566
	C230.062195,93.824455 230.035080,133.123871 229.986984,172.423035
	C229.982422,176.154434 230.464294,179.152924 235.147797,179.151718
	C262.124390,179.144745 289.100983,179.141602 316.077576,179.157928
	C319.630981,179.160080 321.233978,177.370605 321.224945,173.920151
	C321.215363,170.256683 321.235229,166.593155 321.223877,162.929703
	C321.202728,156.089218 320.308777,155.213272 313.415192,155.179626
	C296.273346,155.095963 279.131500,155.006897 261.912781,154.776413
	C261.560699,154.383942 261.295197,154.418335 260.660400,154.614578
	C259.762665,152.496613 258.797974,150.501389 258.791992,148.503326
	C258.697540,116.897896 258.649536,85.291725 258.804230,53.686775
	C258.829163,48.588245 259.258453,43.327774 260.570251,38.428497
	C265.631683,19.525101 279.723511,10.159248 297.372192,5.026180
	C303.149750,3.345797 309.118622,2.323338 315.000000,1.000001
	C379.354218,1.000000 443.708466,1.000000 508.497375,1.408991
	C510.288025,7.545321 511.644012,13.272659 513.000000,19.000000
M101.718460,152.717819
	C101.718460,152.717819 101.754478,152.669678 102.233643,152.563263
	C102.547180,152.400116 102.736580,152.144821 102.973145,151.996155
	C102.973145,151.996155 102.816055,151.786591 103.439072,151.823608
	C104.333939,151.444794 105.228806,151.065979 107.022156,150.484726
	C120.352623,150.638428 133.683090,150.792130 147.445465,151.368469
	C147.997818,151.558167 148.550156,151.747879 149.754822,152.240479
	C152.269180,159.053574 154.894745,165.828400 157.257187,172.693771
	C158.732056,176.979782 161.111649,179.336395 165.990173,179.082184
	C171.638977,178.787827 177.315369,179.059387 182.978912,179.000229
	C187.857330,178.949265 188.633347,177.870346 186.936066,173.327087
	C172.322937,134.210922 157.656281,95.114716 143.076813,55.986034
	C141.687012,52.256092 139.263916,50.161724 135.366440,50.035984
	C129.900696,49.859646 124.427711,49.914364 118.958015,49.852646
	C113.501877,49.791080 110.647209,52.628307 108.902382,57.702568
	C105.670883,67.100349 101.900528,76.312279 98.383942,85.612709
	C87.425636,114.594475 76.476181,143.579605 65.535400,172.568008
	C63.455711,178.078293 64.081009,178.980331 69.951561,179.008850
	C75.115814,179.033951 80.288528,178.833176 85.442184,179.068192
	C90.008972,179.276459 92.527077,177.205078 93.957230,173.057129
	C96.166168,166.650436 98.573776,160.312256 101.298653,153.651077
	C101.551613,153.405563 101.675568,153.106567 101.718460,152.717819
M388.843292,103.182892
	C388.843292,103.182892 388.765106,103.204643 388.753601,102.240700
	C388.621674,93.705780 388.489716,85.170868 388.468994,76.373383
	C388.468994,76.373383 388.740509,76.286201 389.222992,76.359604
	C389.592255,76.261292 389.778259,76.020958 390.472137,75.121407
	C407.792084,75.076408 425.112000,75.034607 442.431946,74.984680
	C448.450287,74.967331 449.590454,73.809174 449.638031,67.659683
	C449.661224,64.661743 449.655426,61.663387 449.638794,58.665352
	C449.603210,52.254402 448.441681,51.065609 442.131226,51.063564
	C416.813721,51.055359 391.496216,51.054756 366.178711,51.063602
	C359.642670,51.065884 358.912689,51.774609 358.909943,58.166485
	C358.899017,83.650543 358.905426,109.134605 358.905426,134.618668
	C358.905457,147.777100 358.953552,160.935822 358.877228,174.093811
	C358.853516,178.182327 360.368927,180.201248 364.731598,180.015915
	C369.885742,179.796967 375.056305,179.976944 380.219727,179.961533
	C386.356598,179.943222 387.372192,178.943665 387.387970,172.624924
	C387.420868,159.466583 387.509674,146.306610 387.337769,133.150421
	C387.276001,128.424103 389.032379,126.680428 393.818604,126.760185
	C407.472900,126.987724 421.133820,126.788445 434.791443,126.870285
	C439.091858,126.896057 441.396362,125.319122 441.168793,120.711845
	C441.004669,117.388748 440.987396,114.042297 441.176697,110.721779
	C441.438232,106.133980 439.160706,104.388191 434.880768,104.431580
	C430.217499,104.478867 425.552734,104.492386 420.889771,104.431145
	C410.589783,104.295868 400.290497,104.104424 389.705505,103.525116
	C389.405548,103.387077 389.105591,103.249046 388.843292,103.182892
z"/>
<path fill="transparent" opacity="1.000000" stroke="none"
	d="
M261.989655,154.919998
	C279.131500,155.006897 296.273346,155.095963 313.415192,155.179626
	C320.308777,155.213272 321.202728,156.089218 321.223877,162.929703
	C321.235229,166.593155 321.215363,170.256683 321.224945,173.920151
	C321.233978,177.370605 319.630981,179.160080 316.077576,179.157928
	C289.100983,179.141602 262.124390,179.144745 235.147797,179.151718
	C230.464294,179.152924 229.982422,176.154434 229.986984,172.423035
	C230.035080,133.123871 230.062195,93.824455 229.943649,54.525566
	C229.929214,49.739128 229.481979,44.854725 228.451920,40.188663
	C224.931107,24.239954 214.601059,13.793232 199.799683,8.223521
	C191.361481,5.048256 182.183640,3.838585 173.169434,1.371914
	C220.020889,1.000000 267.041779,1.000000 314.531342,1.000001
	C309.118622,2.323338 303.149750,3.345797 297.372192,5.026180
	C279.723511,10.159248 265.631683,19.525101 260.570251,38.428497
	C259.258453,43.327774 258.829163,48.588245 258.804230,53.686775
	C258.649536,85.291725 258.697540,116.897896 258.791992,148.503326
	C258.797974,150.501389 259.762665,152.496613 260.880035,154.752975
	C261.649048,154.981873 261.819336,154.950928 261.989655,154.919998
z"/>
<path fill="transparent" opacity="1.000000" stroke="none"
	d="
M22.531218,1.000000
	C20.524063,1.518293 18.055304,2.074268 15.570768,2.547404
	C9.518747,3.699904 7.310336,5.527527 6.947780,11.612185
	C6.315536,22.222960 6.272298,32.867981 5.927127,43.496861
	C4.713292,80.874619 3.270296,118.246658 2.370021,155.631836
	C2.091195,167.210449 3.599879,178.822754 3.642555,190.422012
	C3.667411,197.177490 2.407928,203.937698 1.363159,210.847885
	C1.000000,140.999985 1.000000,70.999969 1.000000,1.000000
	C8.088898,1.000000 15.075666,1.000000 22.531218,1.000000
z"/>
<path fill="transparent" opacity="1.000000" stroke="none"
	d="
M1.000000,228.491058
	C2.633472,229.004913 4.231384,230.820770 5.905706,230.894196
	C35.182747,232.178070 64.463028,233.459763 93.755188,234.307190
	C124.044342,235.183456 154.347000,235.592987 184.821869,236.603348
	C123.666664,237.000000 62.333328,237.000000 1.000000,237.000000
	C1.000000,234.302063 1.000000,231.642090 1.000000,228.491058
z"/>
<path fill="transparent" opacity="1.000000" stroke="none"
	d="
M382.042267,236.179474
	C413.902954,236.188980 445.763641,236.198471 477.812164,236.603973
	C446.312439,237.000000 414.624878,237.000000 382.478638,236.794830
	C382.019928,236.589676 382.042267,236.179474 382.042267,236.179474
z"/>
<path fill="transparent" opacity="1.000000" stroke="none"
	d="
M513.000000,119.531342
	C512.676880,119.510750 512.070862,119.021217 512.071289,118.532265
	C512.092712,96.127701 512.167114,73.723198 512.617676,51.159348
	C513.000000,73.687561 513.000000,96.375122 513.000000,119.531342
z"/>
<path fill="transparent" opacity="1.000000" stroke="none"
	d="
M493.469055,237.000000
	C497.294647,236.371140 501.572449,235.494034 505.889893,235.200653
	C508.770599,235.004883 509.898407,234.131104 510.116699,231.134048
	C510.598511,224.519348 511.511505,217.936066 512.624268,211.169983
	C513.000000,219.583221 513.000000,228.166443 513.000000,237.000000
	C506.648193,237.000000 500.293152,237.000000 493.469055,237.000000
z"/>
<path fill="#181500" opacity="1.000000" stroke="none"
	d="
M313.953033,236.099152
	C316.670105,235.732559 319.386414,235.067017 322.104401,235.060043
	C328.233093,235.044357 334.362579,235.354477 340.762573,236.055420
	C341.033386,236.578812 341.000000,237.000000 341.000000,237.000000
	C332.312439,237.000000 323.624878,237.000000 314.469666,236.774139
	C314.002045,236.548264 313.953033,236.099167 313.953033,236.099152
z"/>
<path fill="transparent" opacity="1.000000" stroke="none"
	d="
M513.000000,18.530291
	C511.644012,13.272659 510.288025,7.545321 508.966003,1.408991
	C510.306091,1.000000 511.612183,1.000000 513.000000,1.000000
	C513.000000,6.686687 513.000000,12.373635 513.000000,18.530291
z"/>
<path fill="transparent" opacity="1.000000" stroke="none"
	d="
M341.468658,237.000000
	C341.000000,237.000000 341.033386,236.578812 341.051422,236.368332
	C354.416809,236.111740 367.764160,236.065613 381.576904,236.099487
	C382.042267,236.179474 382.019928,236.589676 382.009949,236.794830
	C368.645782,237.000000 355.291534,237.000000 341.468658,237.000000
z"/>
<path fill="#33301B" opacity="1.000000" stroke="none"
	d="
M512.104187,39.149426
	C512.083557,35.362511 512.062927,31.575592 512.297546,27.359314
	C512.552734,26.929955 513.000000,27.000000 513.000000,27.000000
	C513.000000,30.692909 513.000000,34.385818 512.775635,38.573944
	C512.551208,39.069157 512.104187,39.149426 512.104187,39.149426
z"/>
<path fill="#6E6C5E" opacity="1.000000" stroke="none"
	d="
M313.500854,236.061768
	C313.953033,236.099167 314.002045,236.548264 314.001038,236.774139
	C310.307098,237.000000 306.614166,237.000000 302.460632,237.000000
	C305.682892,236.674789 309.365753,236.349579 313.500854,236.061768
z"/>
<path fill="#A4A399" opacity="1.000000" stroke="none"
	d="
M513.000000,137.545898
	C512.743774,134.782654 512.487488,131.565308 512.615601,128.173981
	C513.000000,131.030594 513.000000,134.061188 513.000000,137.545898
z"/>
<path fill="#A4A399" opacity="1.000000" stroke="none"
	d="
M193.449982,237.000000
	C195.678543,236.691559 198.357071,236.383133 201.497864,236.327148
	C201.960098,236.579605 202.000000,237.000000 202.000000,237.000000
	C199.299988,237.000000 196.599976,237.000000 193.449982,237.000000
z"/>
<path fill="#6E6C5E" opacity="1.000000" stroke="none"
	d="
M202.428467,237.000000
	C202.000000,237.000000 201.960098,236.579605 201.930969,236.370514
	C203.773605,236.232437 205.645340,236.303436 207.758545,236.687210
	C206.285645,237.000000 204.571289,237.000000 202.428467,237.000000
z"/>
<path fill="#646253" opacity="1.000000" stroke="none"
	d="
M512.086426,39.525871
	C512.104187,39.149426 512.551208,39.069157 512.775635,39.034576
	C513.000000,40.388889 513.000000,41.777779 513.000000,43.583332
	C512.689514,42.634106 512.379089,41.268215 512.086426,39.525871
z"/>
<path fill="#646253" opacity="1.000000" stroke="none"
	d="
M513.000000,26.600004
	C513.000000,27.000000 512.552734,26.929955 512.330933,26.887596
	C512.202820,25.684126 512.296509,24.523016 512.695068,23.180954
	C513.000000,24.066669 513.000000,25.133339 513.000000,26.600004
z"/>
<path fill="transparent" opacity="1.000000" stroke="none"
	d="
M100.897125,153.945007
	C98.573776,160.312256 96.166168,166.650436 93.957230,173.057129
	C92.527077,177.205078 90.008972,179.276459 85.442184,179.068192
	C80.288528,178.833176 75.115814,179.033951 69.951561,179.008850
	C64.081009,178.980331 63.455711,178.078293 65.535400,172.568008
	C76.476181,143.579605 87.425636,114.594475 98.383942,85.612709
	C101.900528,76.312279 105.670883,67.100349 108.902382,57.702568
	C110.647209,52.628307 113.501877,49.791080 118.958015,49.852646
	C124.427711,49.914364 129.900696,49.859646 135.366440,50.035984
	C139.263916,50.161724 141.687012,52.256092 143.076813,55.986034
	C157.656281,95.114716 172.322937,134.210922 186.936066,173.327087
	C188.633347,177.870346 187.857330,178.949265 182.978912,179.000229
	C177.315369,179.059387 171.638977,178.787827 165.990173,179.082184
	C161.111649,179.336395 158.732056,176.979782 157.257187,172.693771
	C154.894745,165.828400 152.269180,159.053574 149.273926,151.811096
	C148.199860,151.236420 147.606705,151.091125 147.013550,150.945831
	C133.683090,150.792130 120.352623,150.638428 106.273300,150.484543
	C104.621651,150.918442 103.718849,151.352509 102.816055,151.786591
	C102.816055,151.786591 102.973145,151.996155 102.634850,151.930908
	C102.115860,152.133667 101.935173,152.401672 101.754478,152.669678
	C101.754478,152.669678 101.718460,152.717819 101.443359,152.831635
	C101.077873,153.278641 100.987495,153.611832 100.897125,153.945007
M112.477562,129.001251
	C112.645744,128.967941 112.813927,128.934647 113.902039,129.105804
	C121.554939,129.112183 129.209122,129.037369 136.860214,129.157730
	C140.942886,129.221939 141.860153,127.508331 140.517197,123.885712
	C139.252640,120.474548 138.192276,116.988220 137.004761,113.547836
	C133.541336,103.513786 130.059250,93.486191 126.584465,83.456062
	C120.644279,97.267174 115.723259,111.065376 110.992653,124.928558
	C110.642197,125.955582 111.660591,127.449715 112.477562,129.001251
z"/>
<path fill="transparent" opacity="1.000000" stroke="none"
	d="
M389.990936,103.935898
	C400.290497,104.104424 410.589783,104.295868 420.889771,104.431145
	C425.552734,104.492386 430.217499,104.478867 434.880768,104.431580
	C439.160706,104.388191 441.438232,106.133980 441.176697,110.721779
	C440.987396,114.042297 441.004669,117.388748 441.168793,120.711845
	C441.396362,125.319122 439.091858,126.896057 434.791443,126.870285
	C421.133820,126.788445 407.472900,126.987724 393.818604,126.760185
	C389.032379,126.680428 387.276001,128.424103 387.337769,133.150421
	C387.509674,146.306610 387.420868,159.466583 387.387970,172.624924
	C387.372192,178.943665 386.356598,179.943222 380.219727,179.961533
	C375.056305,179.976944 369.885742,179.796967 364.731598,180.015915
	C360.368927,180.201248 358.853516,178.182327 358.877228,174.093811
	C358.953552,160.935822 358.905457,147.777100 358.905426,134.618668
	C358.905426,109.134605 358.899017,83.650543 358.909943,58.166485
	C358.912689,51.774609 359.642670,51.065884 366.178711,51.063602
	C391.496216,51.054756 416.813721,51.055359 442.131226,51.063564
	C448.441681,51.065609 449.603210,52.254402 449.638794,58.665352
	C449.655426,61.663387 449.661224,64.661743 449.638031,67.659683
	C449.590454,73.809174 448.450287,74.967331 442.431946,74.984680
	C425.112000,75.034607 407.792084,75.076408 389.904480,75.392921
	C389.030579,75.768661 388.831818,75.975922 388.740509,76.286201
	C388.740509,76.286201 388.468994,76.373383 388.167694,76.798943
	C387.718872,85.241150 387.540039,93.257568 387.483368,101.274849
	C387.478851,101.915062 388.318024,102.561234 388.765106,103.204636
	C388.765106,103.204643 388.843292,103.182892 388.924011,103.404236
	C389.333496,103.729012 389.662201,103.832451 389.990936,103.935898
z"/>
<path fill="#4A4837" opacity="1.000000" stroke="none"
	d="
M388.759338,102.722672
	C388.318024,102.561234 387.478851,101.915062 387.483368,101.274849
	C387.540039,93.257568 387.718872,85.241150 388.112091,76.930222
	C388.489716,85.170868 388.621674,93.705780 388.759338,102.722672
z"/>
<path fill="#514E3D" opacity="1.000000" stroke="none"
	d="
M103.127563,151.805099
	C103.718849,151.352509 104.621651,150.918442 105.824066,150.585754
	C105.228806,151.065979 104.333939,151.444794 103.127563,151.805099
z"/>
<path fill="#514E3D" opacity="1.000000" stroke="none"
	d="
M147.229507,151.157150
	C147.606705,151.091125 148.199860,151.236420 148.947754,151.659668
	C148.550156,151.747879 147.997818,151.558167 147.229507,151.157150
z"/>
<path fill="#514E3D" opacity="1.000000" stroke="none"
	d="
M101.994064,152.616470
	C101.935173,152.401672 102.115860,152.133667 102.549194,151.831528
	C102.736580,152.144821 102.547180,152.400116 101.994064,152.616470
z"/>
<path fill="#514E3D" opacity="1.000000" stroke="none"
	d="
M101.097885,153.798035
	C100.987495,153.611832 101.077873,153.278641 101.419373,152.849762
	C101.675568,153.106567 101.551613,153.405563 101.097885,153.798035
z"/>
<path fill="#151200" opacity="1.000000" stroke="none"
	d="
M261.912781,154.776413
	C261.819336,154.950928 261.649048,154.981873 261.259094,154.874405
	C261.295197,154.418335 261.560699,154.383942 261.912781,154.776413
z"/>
<path fill="#181500" opacity="1.000000" stroke="none"
	d="
M389.848206,103.730507
	C389.662201,103.832451 389.333496,103.729012 388.905212,103.368294
	C389.105591,103.249046 389.405548,103.387077 389.848206,103.730507
z"/>
<path fill="#4A4837" opacity="1.000000" stroke="none"
	d="
M388.981750,76.322906
	C388.831818,75.975922 389.030579,75.768661 389.558868,75.651527
	C389.778259,76.020958 389.592255,76.261292 388.981750,76.322906
z"/>
<path fill="#25220C" opacity="1.000000" stroke="none"
	d="
M112.042618,128.726685
	C111.660591,127.449715 110.642197,125.955582 110.992653,124.928558
	C115.723259,111.065376 120.644279,97.267174 126.584465,83.456062
	C130.059250,93.486191 133.541336,103.513786 137.004761,113.547836
	C138.192276,116.988220 139.252640,120.474548 140.517197,123.885712
	C141.860153,127.508331 140.942886,129.221939 136.860214,129.157730
	C129.209122,129.037369 121.554939,129.112183 113.366920,128.861420
	C112.557999,128.376450 112.294937,128.412994 112.042618,128.726685
z"/>
<path fill="#151200" opacity="1.000000" stroke="none"
	d="
M112.260094,128.863968
	C112.294937,128.412994 112.557999,128.376450 112.906952,128.759201
	C112.813927,128.934647 112.645744,128.967941 112.260094,128.863968
z"/>
</svg>
