<svg xmlns="http://www.w3.org/2000/svg" width="682.667" height="682.667" preserveAspectRatio="xMidYMid meet" version="1.0" viewBox="0 0 512 512"><metadata>Created by potrace 1.14, written by Peter Selinger 2001-2017</metadata><g fill="#000" stroke="none"><path d="M146 3715 c-62 -16 -73 -32 -80 -108 -13 -147 -40 -1135 -42 -1492 -1 -214 -5 -451 -9 -526 -8 -136 -8 -137 15 -149 25 -14 414 -32 1020 -50 458 -13 3989 -14 4023 -1 13 5 28 20 33 33 4 13 10 509 12 1103 3 985 2 1086 -14 1143 l-16 62 -983 0 -982 0 -99 -25 c-264 -67 -407 -204 -434 -415 -13 -101 -13 -1014 0 -1061 l10 -36 292 -6 c264 -5 293 -7 305 -23 20 -27 18 -178 -3 -198 -14 -14 -67 -16 -439 -16 l-424 0 -15 22 c-14 20 -16 100 -16 665 0 434 -4 659 -11 695 -28 133 -119 248 -240 306 -37 18 -123 46 -192 62 l-126 30 -768 -1 c-604 0 -779 -3 -817 -14z m1255 -501 c20 -21 469 -1201 469 -1235 0 -25 -21 -29 -135 -29 -132 0 -139 6 -190 150 -20 58 -42 110 -49 117 -16 17 -400 30 -446 14 -33 -10 -38 -18 -83 -134 -56 -146 -57 -147 -185 -147 -99 0 -132 7 -132 26 0 7 88 246 196 531 108 285 209 553 225 595 50 136 54 138 201 135 94 -2 110 -5 129 -23z m3079 -4 c5 -8 10 -57 10 -108 0 -90 -1 -93 -26 -102 -14 -6 -145 -10 -299 -10 -185 0 -276 -3 -281 -11 -3 -6 -9 -65 -11 -132 -5 -102 -3 -124 10 -135 11 -9 83 -14 259 -19 204 -4 245 -8 256 -21 7 -9 12 -45 12 -87 0 -41 -5 -78 -12 -88 -11 -14 -43 -17 -254 -19 -186 -2 -245 -6 -257 -17 -15 -12 -17 -42 -17 -250 0 -130 -5 -243 -10 -251 -7 -11 -36 -16 -118 -18 -169 -6 -152 -78 -152 636 0 328 3 607 6 619 3 12 16 24 28 26 11 3 207 4 434 3 355 -1 414 -3 422 -16z" transform="translate(0.000000,512.000000) scale(0.100000,-0.100000)"/><path d="M1222 2808 c-70 -177 -114 -307 -110 -330 3 -22 8 -23 123 -30 148 -9 175 -5 175 27 0 21 -122 391 -139 423 -5 8 -23 -26 -49 -90z" transform="translate(0.000000,512.000000) scale(0.100000,-0.100000)"/></g></svg>